<svg id="Layer_1" data-name="Layer 1" xmlns="http://www.w3.org/2000/svg" viewBox="0 0 280 280"><defs><style>.cls-1{font-size:36px;font-family:MSReferenceSansSerif, MS Reference Sans Serif;}.cls-1,.cls-4{fill:#390c07;}.cls-2{letter-spacing:-0.02em;}.cls-3{fill:#ff6b01;}</style></defs><text class="cls-1" transform="translate(53.32 250.59) scale(0.97 1)">COM<tspan class="cls-2" x="83.81" y="0">P</tspan><tspan x="104.64" y="0">ANY</tspan></text><path class="cls-3" d="M76.36,96.14a26.68,26.68,0,0,0-.51,8.62,33.46,33.46,0,0,0,2.78,10.3A42,42,0,0,0,93.1,132.14a35.1,35.1,0,0,0,19.54,6.19,33.56,33.56,0,0,0,3.46-.18,23.75,23.75,0,0,0,4.15-.81,10.49,10.49,0,0,1,1.4,1.42l.32.39L118.09,143l-2.67,2.67-1.67,1.67h0c-14.56-.54-28.17-1.56-39.67-3-6.29-.8-11.78-1.69-16.4-2.67q.12-1.62.3-3.24A78.39,78.39,0,0,1,76.36,96.14Zm111.83,32.22a27,27,0,0,1-6.07,5.86,22.14,22.14,0,0,1-8.82,3.56,34.3,34.3,0,0,1-4.2.39c-.62,0-1.21.07-1.66.12a11.12,11.12,0,0,0-4.45,1.43l.72.72,6.73,6.73.57,0c11.64-.58,22.5-1.49,31.94-2.68,6.29-.79,11.78-1.68,16.4-2.66q-.12-1.63-.3-3.24a77.49,77.49,0,0,0-3.05-14.5,78.43,78.43,0,0,0-9.12-19.42l-1.3,1.72-.22.28c-.17.23-.37.5-.59.78l-4.89,6.13C196,118.4,192,123.4,188.19,128.36Zm-16.65-45a25.48,25.48,0,0,1,1.27,4.78A25.75,25.75,0,0,1,194,66.93a25.74,25.74,0,0,1-21.21-21.21,25.72,25.72,0,0,1-21.2,21.21A25.71,25.71,0,0,1,171.54,83.35Zm-25-4.79a16.2,16.2,0,0,1-13.19,13.33l-.17,0,.21,0a16.22,16.22,0,0,1,13.15,13.33A16.23,16.23,0,0,1,159.9,91.92,16.21,16.21,0,0,1,146.53,78.56Zm-28.78-1.11a8,8,0,0,1-2.12.66,8.18,8.18,0,0,1,6.74,6.75,8.19,8.19,0,0,1,6.75-6.75,8.19,8.19,0,0,1-6.75-6.75A8.15,8.15,0,0,1,117.75,77.45Z"/><path class="cls-4" d="M104.62,160.69C99,166.3,93.18,172.11,87.46,177.84a17.22,17.22,0,0,0-3.24,4.51,10.22,10.22,0,0,0-.11,1.23s-.08-.2-.2-.57c-.76-2.31-3.26-11.15.89-16.6-9.07-.74-17.51-1.68-25.06-2.79q-5.27-.76-9.81-1.64a112.63,112.63,0,0,1-15.41-3.89l-.3-.11a32.22,32.22,0,0,1-8.13-4,14.24,14.24,0,0,1-3.52-3.49,10.36,10.36,0,0,1,0-12.07A14.24,14.24,0,0,1,26.09,135a33,33,0,0,1,8.43-4.08c.64-.22,1.3-.44,2-.65A103.69,103.69,0,0,1,52.09,94.15a105.31,105.31,0,0,1,79.77-45.78l-4.59-6.84a6.85,6.85,0,0,1,5.94-10.29h11.71a6.86,6.86,0,0,1,5.87,10.42l-4.51,6.66a107.39,107.39,0,0,1,14.34,1.9l.12,0A51.25,51.25,0,0,1,142.29,63.5c-.95,0-1.92,0-2.88,0A90.16,90.16,0,0,0,70.69,95.12a88.87,88.87,0,0,0-17.27,31.23A87.82,87.82,0,0,0,50,142.63c-.14,1.21-.25,2.42-.34,3.64,5.19,1.1,11.36,2.1,18.41,3,12.92,1.63,28.2,2.78,44.54,3.38h.06l1.15,0-5.77,4.57Zm151.63-22.24a14.24,14.24,0,0,0-3.52-3.49,33,33,0,0,0-8.43-4.08c-.64-.22-1.3-.44-2-.65a103.69,103.69,0,0,0-15.59-36.08A104.93,104.93,0,0,0,204,70.06a50.57,50.57,0,0,0-8.76,4.65,51.23,51.23,0,0,0-5.4,4.11,90.23,90.23,0,0,1,25.32,25.74,87.86,87.86,0,0,1,13.66,38.07c.14,1.21.25,2.42.34,3.64-5.19,1.1-11.36,2.1-18.41,3-10.61,1.34-22.8,2.35-35.86,3l-.64,0H174l1.05.83L192,166.57l5.83,4.61s6.1,5.59,6.36,12.4c0,0,4.49-11.83-1.37-18,5.75-.57,11.18-1.24,16.22-2q5.26-.76,9.81-1.64a113,113,0,0,0,15.41-3.89l.3-.11a32.22,32.22,0,0,0,8.13-4,14.24,14.24,0,0,0,3.52-3.49,10.4,10.4,0,0,0,0-12.07Zm-65,46.3Q171.53,165,151.76,145.26c-.22-.22-.43-.45-.65-.66a.94.94,0,0,1-.12-1.4c4.71-6.31,10.57-10.81,18.66-11.73,2-.22,4-.16,6-.49,4.21-.7,7.29-3.11,9.89-6.47,6.13-8,12.45-15.76,18.7-23.63.25-.31.48-.63.77-1l-1.58-1.65c-1.64,1.72-3.26,3.4-4.86,5.1L184,118.76q-3.21,3.4-6.44,6.8c-.65.69-1,.72-1.69,0s-1.63-1.61-2.42-2.43-.77-1,0-1.84L194.9,99.89c1.68-1.68,3.38-3.34,5.12-5.07l-1.29-1.29c-.29.28-.53.49-.77.73L172.24,120c-1.07,1.08-1.34,1.08-2.41,0l-1.44-1.44c-.79-.81-.78-1.2,0-2l12.4-12.39q6.74-6.72,13.45-13.45c.24-.24.46-.49.76-.8l-1.65-1.3c-.11.1-.4.35-.67.62L167,114.9c-1,1-1.27,1-2.21,0-.71-.7-1.42-1.39-2.1-2.1s-.72-1.15,0-1.87c3.08-2.9,6.18-5.79,9.27-8.68l17.86-16.75a4.36,4.36,0,0,0,.35-.4l-1.37-1.38-5.6,4.35c-6.44,5-12.86,10-19.33,15a15.89,15.89,0,0,0-6.55,14.16A22.3,22.3,0,0,1,155,127.5a26.69,26.69,0,0,1-10.41,11.41,1.34,1.34,0,0,1-1.55,0c-4.77-2.85-9.32-6-12.84-10.37a12.93,12.93,0,0,1-2.71-5.22,2,2,0,0,1,.07-1.16c2.23-4.82,2.13-9.79.86-14.79-1.93-7.63-6.42-13.54-12.66-18.19a28.92,28.92,0,0,0-14.21-5.9A18.47,18.47,0,0,0,81,103.69a29.37,29.37,0,0,0,6.68,15.43,34.26,34.26,0,0,0,7.84,7.31c5.66,3.74,11.83,5.71,18.67,5a19,19,0,0,0,4.9-1.27,4,4,0,0,1,3.2,0,19.39,19.39,0,0,1,7.66,5.85c2,2.37,3.73,4.92,5.55,7.41.72,1,.66,1.2-.19,2.05l-10.05,10-5.63,5.63q-12.21,12.21-24.43,24.43A5.53,5.53,0,0,0,97.55,195,5.39,5.39,0,0,0,103,193.5q7.43-7.45,14.88-14.89l18.94-18.92,4.78-4.77c1-1,1.27-1,2.27,0L163.94,175q8,8,16,16a36.8,36.8,0,0,0,3.87,3.52c2,1.45,4.1,1.24,6.14-.07,2.56-1.63,3.8-4.38,3-7A7,7,0,0,0,191.22,184.75Z"/></svg>